<mxfile host="app.diagrams.net" agent="Mozilla/5.0 (Windows NT 10.0; Win64; x64) AppleWebKit/537.36 (KHTML, like Gecko) Chrome/128.0.0.0 Safari/537.36" version="24.7.12">
  <diagram name="Page-1" id="42789a77-a242-8287-6e28-9cd8cfd52e62">
    <mxGraphModel grid="0" page="1" gridSize="10" guides="1" tooltips="1" connect="1" arrows="1" fold="1" pageScale="1" pageWidth="1100" pageHeight="850" background="none" math="0" shadow="0">
      <root>
        <mxCell id="0" />
        <mxCell id="1" parent="0" />
        <mxCell id="7MMvZeit5MfT49awLuT0-2" style="edgeStyle=orthogonalEdgeStyle;rounded=0;orthogonalLoop=1;jettySize=auto;html=1;exitX=0;exitY=0.75;exitDx=0;exitDy=0;entryX=0.25;entryY=1;entryDx=0;entryDy=0;strokeColor=#CC0000;" edge="1" parent="1" source="TjTySrl4TzKIkQ1p-DLu-6" target="cZsfL6KlIschWVRfWCY3-7">
          <mxGeometry relative="1" as="geometry" />
        </mxCell>
        <mxCell id="qTmObpmJBiQsHKe2OiXN-31" value="CalcValueHost" style="swimlane;whiteSpace=wrap;html=1;startSize=23;strokeColor=#97D077;fontColor=#5E4E4E;collapsible=0;swimlaneFillColor=#E6FFCC;" vertex="1" parent="1">
          <mxGeometry x="709" y="210" width="105" height="120" as="geometry" />
        </mxCell>
        <mxCell id="qTmObpmJBiQsHKe2OiXN-20" value="&lt;p style=&quot;line-height: 130%;&quot;&gt;&quot;&lt;font color=&quot;#cc00cc&quot;&gt;DiffInDays&lt;/font&gt;&quot;&lt;br&gt;&lt;font face=&quot;Lucida Console&quot;&gt;getValue()&lt;br&gt;&lt;/font&gt;calcFn()&lt;font face=&quot;Lucida Console&quot;&gt;&lt;br&gt;&lt;/font&gt;&lt;/p&gt;" style="rounded=0;whiteSpace=wrap;html=1;shadow=0;comic=0;labelBackgroundColor=none;strokeWidth=1;fontFamily=Verdana;fontSize=12;align=center;fillColor=none;strokeColor=none;" vertex="1" parent="qTmObpmJBiQsHKe2OiXN-31">
          <mxGeometry x="8" y="28" width="89" height="59" as="geometry" />
        </mxCell>
        <mxCell id="qTmObpmJBiQsHKe2OiXN-30" value="&lt;font&gt;InputValueHost&lt;/font&gt;" style="swimlane;whiteSpace=wrap;html=1;strokeColor=#97D077;collapsible=0;fontColor=#5E4E4E;swimlaneFillColor=#E6FFCC;" vertex="1" parent="1">
          <mxGeometry x="575" y="210" width="128" height="165" as="geometry" />
        </mxCell>
        <mxCell id="qTmObpmJBiQsHKe2OiXN-21" value="&quot;&lt;font color=&quot;#cc00cc&quot;&gt;EndDate&lt;/font&gt;&quot;&lt;br&gt;&lt;font face=&quot;Lucida Console&quot;&gt;validate()&amp;nbsp;&lt;/font&gt;&lt;div&gt;&lt;font face=&quot;Lucida Console&quot;&gt;isValid&amp;nbsp;&lt;/font&gt;&lt;/div&gt;&lt;div&gt;&lt;font face=&quot;Lucida Console&quot;&gt;doNotSave getIssuesFound()&lt;br&gt;getValue()&lt;br&gt;setValue()&lt;/font&gt;&lt;br&gt;&lt;/div&gt;" style="rounded=0;html=1;shadow=0;comic=0;strokeWidth=1;align=center;fillColor=none;strokeColor=none;whiteSpace=wrap;spacing=2;verticalAlign=top;" vertex="1" parent="qTmObpmJBiQsHKe2OiXN-30">
          <mxGeometry x="3.5" y="29" width="121" height="113" as="geometry" />
        </mxCell>
        <mxCell id="qTmObpmJBiQsHKe2OiXN-40" style="edgeStyle=orthogonalEdgeStyle;rounded=0;orthogonalLoop=1;jettySize=auto;html=1;exitX=0.5;exitY=1;exitDx=0;exitDy=0;entryX=0.5;entryY=0;entryDx=0;entryDy=0;strokeColor=#660831;" edge="1" parent="1" source="1ea317790d2ca983-1" target="qTmObpmJBiQsHKe2OiXN-22">
          <mxGeometry relative="1" as="geometry" />
        </mxCell>
        <mxCell id="qTmObpmJBiQsHKe2OiXN-41" style="edgeStyle=orthogonalEdgeStyle;rounded=0;orthogonalLoop=1;jettySize=auto;html=1;exitX=0.5;exitY=1;exitDx=0;exitDy=0;entryX=0.5;entryY=0;entryDx=0;entryDy=0;strokeColor=#660831;" edge="1" parent="1" source="1ea317790d2ca983-1" target="qTmObpmJBiQsHKe2OiXN-30">
          <mxGeometry relative="1" as="geometry" />
        </mxCell>
        <mxCell id="qTmObpmJBiQsHKe2OiXN-42" style="edgeStyle=orthogonalEdgeStyle;rounded=0;orthogonalLoop=1;jettySize=auto;html=1;exitX=0.5;exitY=1;exitDx=0;exitDy=0;entryX=0.5;entryY=0;entryDx=0;entryDy=0;strokeColor=#660831;" edge="1" parent="1" source="1ea317790d2ca983-1" target="qTmObpmJBiQsHKe2OiXN-31">
          <mxGeometry relative="1" as="geometry" />
        </mxCell>
        <mxCell id="qTmObpmJBiQsHKe2OiXN-43" style="edgeStyle=orthogonalEdgeStyle;rounded=0;orthogonalLoop=1;jettySize=auto;html=1;exitX=0.5;exitY=1;exitDx=0;exitDy=0;entryX=0.5;entryY=0;entryDx=0;entryDy=0;strokeColor=#660831;" edge="1" parent="1" source="1ea317790d2ca983-1" target="qTmObpmJBiQsHKe2OiXN-32">
          <mxGeometry relative="1" as="geometry" />
        </mxCell>
        <mxCell id="7MMvZeit5MfT49awLuT0-3" style="edgeStyle=orthogonalEdgeStyle;rounded=0;orthogonalLoop=1;jettySize=auto;html=1;exitX=0;exitY=0.5;exitDx=0;exitDy=0;strokeColor=#CC0000;" edge="1" parent="1" source="1ea317790d2ca983-1" target="cZsfL6KlIschWVRfWCY3-7">
          <mxGeometry relative="1" as="geometry" />
        </mxCell>
        <mxCell id="1ea317790d2ca983-1" value="&lt;font color=&quot;#5e4e4e&quot; face=&quot;Verdana&quot;&gt;&lt;b&gt;ValidationManager&lt;/b&gt;&lt;/font&gt;&lt;br&gt;validate()&amp;nbsp;&lt;br&gt;isValid&amp;nbsp;&lt;br&gt;doNotSave&lt;br&gt;getIssuesFound() getValueHost()" style="whiteSpace=wrap;rounded=1;comic=0;labelBackgroundColor=none;strokeWidth=1;fontFamily=Lucida Console;fontSize=12;align=center;fillColor=#e1d5e7;strokeColor=#9673a6;html=1;" vertex="1" parent="1">
          <mxGeometry x="490" y="55" width="178" height="105" as="geometry" />
        </mxCell>
        <mxCell id="cZsfL6KlIschWVRfWCY3-7" value="&lt;b style=&quot;color: rgb(94, 78, 78);&quot;&gt;ValidationServices&lt;/b&gt;&lt;br&gt;factories&lt;br&gt;services" style="whiteSpace=wrap;html=1;rounded=1;shadow=0;comic=0;labelBackgroundColor=none;strokeWidth=1;fontFamily=Verdana;fontSize=12;align=center;fillColor=#f8cecc;strokeColor=#b85450;" vertex="1" parent="1">
          <mxGeometry x="226.88" y="77" width="153" height="62" as="geometry" />
        </mxCell>
        <mxCell id="7MMvZeit5MfT49awLuT0-1" style="edgeStyle=orthogonalEdgeStyle;rounded=0;orthogonalLoop=1;jettySize=auto;html=1;exitX=0.25;exitY=0;exitDx=0;exitDy=0;entryX=0.5;entryY=1;entryDx=0;entryDy=0;strokeColor=#CC0000;" edge="1" parent="1" source="qTmObpmJBiQsHKe2OiXN-22" target="cZsfL6KlIschWVRfWCY3-7">
          <mxGeometry relative="1" as="geometry" />
        </mxCell>
        <mxCell id="qTmObpmJBiQsHKe2OiXN-22" value="&lt;font color=&quot;#5e4e4e&quot;&gt;InputValueHost with 2 validators&lt;/font&gt;" style="swimlane;whiteSpace=wrap;html=1;strokeColor=#97D077;fontColor=#006600;collapsible=0;opacity=70;swimlaneFillColor=#E6FFCC;" vertex="1" parent="1">
          <mxGeometry x="200" y="210" width="370" height="347" as="geometry" />
        </mxCell>
        <mxCell id="TjTySrl4TzKIkQ1p-DLu-6" value="Validator" style="swimlane;horizontal=0;whiteSpace=wrap;html=1;rotation=90;strokeColor=#CCCCFF;fontColor=#5E4E4E;collapsible=0;container=0;swimlaneFillColor=#DAE8FC;" vertex="1" parent="qTmObpmJBiQsHKe2OiXN-22">
          <mxGeometry x="-2.6999999999999886" y="156" width="197.72" height="169.83" as="geometry" />
        </mxCell>
        <mxCell id="TjTySrl4TzKIkQ1p-DLu-7" value="&lt;div&gt;Condition&lt;/div&gt;" style="swimlane;horizontal=0;whiteSpace=wrap;html=1;rotation=90;strokeColor=#CCCCFF;collapsible=0;fontColor=#5E4E4E;container=0;startSize=23;swimlaneFillColor=#FAD7AC;" vertex="1" parent="qTmObpmJBiQsHKe2OiXN-22">
          <mxGeometry x="53.83" y="210.58" width="84.65" height="154.61" as="geometry" />
        </mxCell>
        <mxCell id="TjTySrl4TzKIkQ1p-DLu-8" value="&lt;p style=&quot;line-height: 130%;&quot;&gt;&lt;font color=&quot;#cc00cc&quot;&gt;StartDate &lt;/font&gt;&amp;lt; &lt;font color=&quot;#cc00cc&quot;&gt;EndDate&lt;/font&gt;&lt;br&gt;&lt;font face=&quot;Lucida Console&quot;&gt;evaluate()&lt;/font&gt;&lt;/p&gt;" style="whiteSpace=wrap;html=1;rotation=0;fillColor=none;strokeColor=none;rounded=0;container=0;" vertex="1" parent="TjTySrl4TzKIkQ1p-DLu-7">
          <mxGeometry x="-25.5" y="69.94" width="137" height="37" as="geometry" />
        </mxCell>
        <mxCell id="TjTySrl4TzKIkQ1p-DLu-9" value="validate()&#xa;status&#xa;error messages&#xa;severity" style="whiteSpace=wrap;rounded=0;shadow=0;comic=0;labelBackgroundColor=none;strokeWidth=1;fontFamily=Lucida Console;fontSize=12;align=center;rotation=0;fillColor=none;strokeColor=none;container=0;" vertex="1" parent="qTmObpmJBiQsHKe2OiXN-22">
          <mxGeometry x="34.32" y="166.41" width="123.5" height="72.59" as="geometry" />
        </mxCell>
        <mxCell id="qTmObpmJBiQsHKe2OiXN-23" value="&lt;p style=&quot;line-height: 130%;&quot;&gt;&quot;&lt;font color=&quot;#cc00cc&quot;&gt;StartDate&lt;/font&gt;&quot;&lt;br&gt;&lt;font face=&quot;Lucida Console&quot;&gt;validate() isValid doNotSave getIssuesFound()&lt;br&gt;getValue()&lt;br&gt;setValue()&lt;br&gt;&lt;/font&gt;&lt;/p&gt;" style="rounded=0;whiteSpace=wrap;html=1;shadow=0;comic=0;labelBackgroundColor=none;strokeWidth=1;fontFamily=Verdana;fontSize=12;align=center;fillColor=none;strokeColor=none;" vertex="1" parent="qTmObpmJBiQsHKe2OiXN-22">
          <mxGeometry x="125" y="23" width="120" height="120" as="geometry" />
        </mxCell>
        <mxCell id="qTmObpmJBiQsHKe2OiXN-24" value="Validator" style="swimlane;horizontal=0;whiteSpace=wrap;html=1;rotation=90;strokeColor=#CCCCFF;fontColor=#5E4E4E;collapsible=0;container=0;swimlaneFillColor=#DAE8FC;" vertex="1" parent="1">
          <mxGeometry x="377" y="366" width="197.72" height="169.83" as="geometry" />
        </mxCell>
        <mxCell id="qTmObpmJBiQsHKe2OiXN-26" value="&lt;div&gt;Condition&lt;/div&gt;" style="swimlane;horizontal=0;whiteSpace=wrap;html=1;rotation=90;strokeColor=#CCCCFF;collapsible=0;fontColor=#5E4E4E;container=0;startSize=23;swimlaneFillColor=#FAD7AC;" vertex="1" parent="qTmObpmJBiQsHKe2OiXN-24">
          <mxGeometry x="58.08" y="56.06" width="84" height="154.61" as="geometry" />
        </mxCell>
        <mxCell id="qTmObpmJBiQsHKe2OiXN-27" value="&lt;p style=&quot;line-height: 130%;&quot;&gt;&lt;font color=&quot;#cc00cc&quot;&gt;DiffInDays &lt;/font&gt;&amp;lt;= &lt;font color=&quot;#cc00cc&quot;&gt;NumOfDays&lt;/font&gt;&lt;br&gt;&lt;font face=&quot;Lucida Console&quot;&gt;evaluate()&lt;/font&gt;&lt;/p&gt;" style="whiteSpace=wrap;html=1;rotation=0;fillColor=none;strokeColor=none;rounded=0;container=0;" vertex="1" parent="qTmObpmJBiQsHKe2OiXN-26">
          <mxGeometry x="-30.079999999999956" y="68.38000000000002" width="144" height="37" as="geometry" />
        </mxCell>
        <mxCell id="qTmObpmJBiQsHKe2OiXN-25" value="validate()&#xa;status&#xa;error messages&#xa;severity" style="whiteSpace=wrap;rounded=0;shadow=0;comic=0;labelBackgroundColor=none;strokeWidth=1;fontFamily=Lucida Console;fontSize=12;align=center;rotation=0;fillColor=none;strokeColor=none;container=0;" vertex="1" parent="qTmObpmJBiQsHKe2OiXN-24">
          <mxGeometry x="39.02" y="10.41" width="123.5" height="75.59" as="geometry" />
        </mxCell>
        <mxCell id="qTmObpmJBiQsHKe2OiXN-32" value="StaticValueHost" style="swimlane;whiteSpace=wrap;html=1;strokeColor=#97D077;swimlaneLine=1;fontColor=#5E4E4E;collapsible=0;swimlaneFillColor=#E6FFCC;" vertex="1" parent="1">
          <mxGeometry x="820" y="210" width="123" height="120" as="geometry">
            <mxRectangle x="587" y="30" width="150" height="30" as="alternateBounds" />
          </mxGeometry>
        </mxCell>
        <mxCell id="qTmObpmJBiQsHKe2OiXN-33" value="&lt;p style=&quot;line-height: 140%;&quot;&gt;&quot;&lt;font color=&quot;#cc00cc&quot;&gt;NumOfDays&lt;/font&gt;&quot;&lt;br&gt;&lt;font face=&quot;Lucida Console&quot;&gt;getValue()&lt;br style=&quot;border-color: var(--border-color);&quot;&gt;&lt;/font&gt;&lt;span style=&quot;font-family: &amp;quot;Lucida Console&amp;quot;;&quot;&gt;setValue()&lt;/span&gt;&lt;/p&gt;" style="rounded=0;whiteSpace=wrap;html=1;shadow=0;comic=0;labelBackgroundColor=none;strokeWidth=1;fontFamily=Verdana;fontSize=12;align=center;fillColor=none;strokeColor=none;" vertex="1" parent="qTmObpmJBiQsHKe2OiXN-32">
          <mxGeometry x="16" y="30" width="94" height="59" as="geometry" />
        </mxCell>
      </root>
    </mxGraphModel>
  </diagram>
</mxfile>
